<?xml version="1.0" encoding="utf-8"?>
<!-- Generator: Adobe Illustrator 16.0.0, SVG Export Plug-In . SVG Version: 6.00 Build 0)  -->
<!DOCTYPE svg PUBLIC "-//W3C//DTD SVG 1.1//EN" "http://www.w3.org/Graphics/SVG/1.1/DTD/svg11.dtd">
<svg version="1.1" id="Layer_1" xmlns="http://www.w3.org/2000/svg" xmlns:xlink="http://www.w3.org/1999/xlink" x="0px" y="0px"
	 width="120px" height="31.7px" viewBox="0 0 120 31.7" enable-background="new 0 0 120 31.7" xml:space="preserve">
<g>
	<path d="M42.3,16.4c0,0.4-0.1,0.7-0.3,1c-0.2,0.3-0.6,0.4-1.2,0.4h-9.1c-0.6,0-0.9-0.4-0.9-1.2c0-0.8,0.3-1.2,0.9-1.2h7.5
		c0.1,0,0.2,0,0.2-0.1c0,0,0-0.1,0-0.2v-1h-4.4c-0.6,0-1-0.1-1.2-0.4c-0.2-0.3-0.3-0.6-0.3-1V7.9c0-0.8,0.5-1.1,1.4-1.1
		c0.9,0,1.4,0.4,1.4,1.1v3.6c0,0.1,0,0.1,0,0.2c0,0,0.1,0.1,0.2,0.1h10.8c0.6,0,0.9,0.4,0.9,1.2c0,0.8-0.3,1.2-0.9,1.2h-5.1V16.4z
		 M49.1,23.2c0,0.4-0.1,0.7-0.3,1c-0.2,0.3-0.6,0.4-1.2,0.4h-9.6c-0.1,0-0.2,0-0.2,0.1c0,0,0,0.1,0,0.2v0.5c0,0.1,0,0.1,0,0.2
		c0,0,0.1,0.1,0.2,0.1h10.8c0.6,0,0.9,0.4,0.9,1.2c0,0.8-0.3,1.2-0.9,1.2H36.5c-0.6,0-1-0.1-1.2-0.4c-0.2-0.3-0.3-0.6-0.3-1v-2.9
		c0-0.4,0.1-0.7,0.3-1c0.2-0.3,0.6-0.4,1.2-0.4h9.6c0.1,0,0.2,0,0.2-0.1c0,0,0-0.1,0-0.2v-0.5c0-0.1,0-0.1,0-0.2
		c0,0-0.1-0.1-0.2-0.1H35.9c-0.6,0-0.9-0.4-0.9-1.2c0-0.8,0.3-1.2,0.9-1.2h11.7c0.6,0,1,0.1,1.2,0.4c0.2,0.3,0.3,0.6,0.3,1V23.2z"/>
	<path d="M63.3,14.6c0,0.4-0.1,0.7-0.3,1c-0.2,0.3-0.6,0.4-1.2,0.4h-6.2c-0.1,0-0.2,0-0.2,0.1s0,0.1,0,0.2V21c0,0.1,0,0.1,0.1,0.2
		c0,0,0.1,0.1,0.2,0.1c0.9,0,2.3-0.1,4.2-0.5c1.9-0.4,3.3-0.8,4.4-1.3c0.6-0.3,1.1,0,1.4,0.7c0.3,0.8,0.1,1.3-0.7,1.7
		c-1,0.5-2.5,1-4.6,1.4c-2,0.4-4.1,0.6-6.2,0.6c-0.4,0-0.7-0.2-1-0.5c-0.3-0.3-0.5-0.6-0.5-1V15c0-0.4,0.1-0.7,0.3-1
		c0.2-0.3,0.6-0.4,1.2-0.4h6.2c0.1,0,0.2,0,0.2-0.1c0,0,0-0.1,0-0.2V9.9c0-0.1,0-0.1,0-0.2s-0.1-0.1-0.2-0.1h-6.8
		c-0.6,0-0.9-0.4-0.9-1.2c0-0.8,0.3-1.2,0.9-1.2h8.3c0.6,0,1,0.1,1.2,0.4c0.2,0.3,0.3,0.6,0.3,1V14.6z M67.3,14.7
		c0,0.5-0.2,0.9-0.5,1.3s-0.8,0.5-1.3,0.5s-0.9-0.2-1.3-0.5s-0.5-0.8-0.5-1.3c0-0.5,0.2-0.9,0.5-1.3s0.8-0.5,1.3-0.5
		s0.9,0.2,1.3,0.5S67.3,14.2,67.3,14.7z M70.6,25.7c0,0.8-0.5,1.1-1.4,1.1c-0.9,0-1.4-0.4-1.4-1.1V7.9c0-0.8,0.5-1.1,1.4-1.1
		c0.9,0,1.4,0.4,1.4,1.1V25.7z"/>
	<path fill="#FE5200" d="M82.4,22.6c0,0.4-0.1,0.7-0.3,1C81.9,23.9,81.5,24,81,24h-6.3c-0.6,0-0.9-0.4-0.9-1.2
		c0-0.8,0.3-1.2,0.9-1.2h4.8c0.1,0,0.2,0,0.2-0.1c0,0,0-0.1,0-0.2v-1.5c-0.9-0.2-1.8-0.6-2.5-1.3c-1-0.9-1.5-2.1-1.5-3.4
		c0-1.3,0.5-2.4,1.5-3.4c0.1-0.1,0.2-0.1,0.3-0.2h-2.3c-0.6,0-0.9-0.4-0.9-1.2c0-0.8,0.3-1.2,0.9-1.2h4.5V7.7c0-0.8,0.5-1.1,1.4-1.1
		c0.9,0,1.4,0.4,1.4,1.1v1.5h4.3c0.6,0,0.9,0.4,0.9,1.2c0,0.8-0.3,1.2-0.9,1.2h-2.3c0.1,0.1,0.2,0.2,0.3,0.2c1,0.9,1.5,2.1,1.5,3.4
		c0,1.3-0.5,2.4-1.5,3.4c-0.7,0.6-1.4,1-2.3,1.2V22.6z M83.5,15.1c0-0.7-0.2-1.3-0.7-1.8c-0.5-0.5-1.1-0.7-1.8-0.7
		c-0.7,0-1.3,0.2-1.8,0.7s-0.7,1.1-0.7,1.8c0,0.7,0.2,1.3,0.7,1.8s1.1,0.7,1.8,0.7c0.7,0,1.3-0.2,1.8-0.7
		C83.2,16.4,83.5,15.8,83.5,15.1z M91.6,25.7c0,0.8-0.5,1.1-1.4,1.1c-0.9,0-1.4-0.4-1.4-1.1V7.9c0-0.8,0.5-1.1,1.4-1.1
		c0.9,0,1.4,0.4,1.4,1.1V25.7z M96.1,15.4c0,0.5-0.2,0.9-0.5,1.3c-0.4,0.4-0.8,0.5-1.3,0.5s-0.9-0.2-1.3-0.5
		c-0.4-0.4-0.5-0.8-0.5-1.3s0.2-0.9,0.5-1.3c0.4-0.4,0.8-0.5,1.3-0.5s0.9,0.2,1.3,0.5S96.1,14.9,96.1,15.4z"/>
	<path d="M104.8,23.2c0,0.4-0.1,0.7-0.3,1c-0.2,0.3-0.6,0.4-1.2,0.4h-5.5c-0.6,0-0.9-0.4-0.9-1.2c0-0.8,0.3-1.2,0.9-1.2h4
		c0.1,0,0.2,0,0.2-0.1c0,0,0-0.1,0-0.2v-2.9c0-0.8,0.5-1.1,1.4-1.1c0.9,0,1.4,0.4,1.4,1.1V23.2z M112.8,12.5c0,1.6-0.6,2.9-1.9,4.1
		s-2.8,1.7-4.6,1.7c-1.8,0-3.4-0.6-4.6-1.7s-1.9-2.5-1.9-4.1c0-1.6,0.6-3,1.9-4.1c1.2-1.1,2.8-1.7,4.6-1.7c1.8,0,3.3,0.6,4.6,1.7
		S112.8,10.9,112.8,12.5z M110,12.5c0-0.9-0.4-1.8-1.1-2.4c-0.7-0.7-1.6-1-2.6-1c-1,0-1.9,0.3-2.6,1c-0.7,0.7-1.1,1.5-1.1,2.4
		c0,0.9,0.4,1.8,1.1,2.4s1.6,1,2.6,1c1,0,1.8-0.3,2.6-1C109.6,14.2,110,13.4,110,12.5z M110.9,23.5c0,0.8-0.5,1.1-1.4,1.1
		c-0.9,0-1.4-0.4-1.4-1.1v-4.5c0-0.8,0.5-1.1,1.4-1.1c0.9,0,1.4,0.4,1.4,1.1V23.5z"/>
</g>
<image display="none" overflow="visible" width="500" height="550" xlink:href="C:\Users\Administrator\Downloads\hwaseongsi.jpg"  transform="matrix(6.395064e-002 0 0 6.395064e-002 3.624 -0.7534)">
</image>
<path fill="none" stroke="#FE5200" stroke-width="3.0943" stroke-linecap="round" stroke-linejoin="round" stroke-miterlimit="10" d="
	M28.8,3.1c0,0-7.6,12-17.5,9.8c0,0,2.9,5.1-2.9,13.4c0,0,6.9-6.7,20.5,1.9C28.8,28.2,20.4,17.7,28.8,3.1z"/>
</svg>
